{"title":"Before.the.Winter.Chill.[Avant.l.Hiver].2013.DVDRip.XviD.HORiZON","uid":9910836,"size":1465765888,"categoryP":"video","categoryS":"movies","magnet":"?xt=urn:btih:867af1f717eb891d6bf872f7612610e6412ace90&amp;dn=Before.the.Winter.Chill.%5BAvant.l.Hiver%5D.2013.DVDRip.XviD.HORiZON&amp;tr=udp%3A%2F%2Ftracker.openbittorrent.com%3A80&amp;tr=udp%3A%2F%2Fopen.demonii.com%3A1337&amp;tr=udp%3A%2F%2Ftracker.coppersurfer.tk%3A6969&amp;tr=udp%3A%2F%2Fexodus.desync.com%3A6969","seeders":12,"leechers":1,"uploader":"lletaif","files":1,"time":1396894461,"description":"Title:\nBefore the Winter Chill Aka Avant l'Hiver\n\n\nCountry:\nFrance,2013\n\n\nSubtitle:\nDeutch in opensubtitle\n\n\nIMDB: &lt;a href=&quot;\nhttp://www.imdb.com/title/tt2231630/&quot; rel=&quot;nofollow&quot; target=&quot;_NEW&quot;&gt;\nhttp://www.imdb.com/title/tt2231630/&lt;/a&gt;\n\nPlot:\nLucie presumes that her husband Paul - an older neurosurgeon - has an affair. Indeed, Paul behaves strange lately, but the truth behind it is dark and complicated. \n\n\nTrivia:\nOfficial Selection Telluride Film Festival 2013.\n\n\nMedia Info:\n\nGeneral\nComplete name                            : Before.the.Winter.Chill.[Avant.l.Hiver].2013.DVDRip.XviD.HORiZON-ArtSubs.avi\nFormat                                   : AVI\nFormat/Info                              : Audio Video Interleave\nFile size                                : 1.37 GiB\nDuration                                 : 1h 38mn\nOverall bit rate                         : 1 987 Kbps\nWriting application                      : FairUse Wizard - http://fairusewizard.com\nWriting library                          : The best and REALLY easy backup tool\n\nVideo\nID                                       : 0\nFormat                                   : MPEG-4 Visual\nFormat profile                           : Advanced Simple@L5\nFormat settings, BVOP                    : 1\nFormat settings, QPel                    : No\nFormat settings, GMC                     : No warppoints\nFormat settings, Matrix                  : Default (MPEG)\nMuxing mode                              : Packed bitstream\nCodec ID                                 : XVID\nCodec ID/Hint                            : XviD\nDuration                                 : 1h 38mn\nBit rate                                 : 1 530 Kbps\nWidth                                    : 704 pixels\nHeight                                   : 288 pixels\nDisplay aspect ratio                     : 2.40:1\nFrame rate                               : 25.000 fps\nColor space                              : YUV\nChroma subsampling                       : 4:2:0\nBit depth                                : 8 bits\nScan type                                : Progressive\nCompression mode                         : Lossy\nBits/(Pixel*Frame)                       : 0.302\nStream size                              : 1.05 GiB (77%)\nWriting library                          : XviD 1.2.0.dev47 (UTC 2006-11-01)\n\nAudio\nID                                       : 1\nFormat                                   : AC-3\nFormat/Info                              : Audio Coding 3\nMode extension                           : CM (complete main)\nFormat settings, Endianness              : Big\nCodec ID                                 : 2000\nDuration                                 : 1h 38mn\nBit rate mode                            : Constant\nBit rate                                 : 448 Kbps\nChannel count                            : 6 channels\nChannel positions                        : Front: L C R, Side: L R, LFE\nSampling rate                            : 48.0 KHz\nBit depth                                : 16 bits\nCompression mode                         : Lossy\nStream size                              : 315 MiB (23%)\nAlignment                                : Split accross interleaves\nInterleave, duration                     : 40 ms (1.00 video frame)\nInterleave, preload duration             : 500 ms\n\n","torrent":{"xt":"urn:btih:867af1f717eb891d6bf872f7612610e6412ace90","amp;dn":"Before.the.Winter.Chill.%5BAvant.l.Hiver%5D.2013.DVDRip.XviD.HORiZON","amp;tr":["udp%3A%2F%2Ftracker.openbittorrent.com%3A80","udp%3A%2F%2Fopen.demonii.com%3A1337","udp%3A%2F%2Ftracker.coppersurfer.tk%3A6969","udp%3A%2F%2Fexodus.desync.com%3A6969"],"infoHash":"867af1f717eb891d6bf872f7612610e6412ace90","infoHashBuffer":{"type":"Buffer","data":[134,122,241,247,23,235,137,29,107,248,114,247,97,38,16,230,65,42,206,144]},"announce":[],"urlList":[]}}